<svg xmlns="http://www.w3.org/2000/svg" width="354" height="354" viewBox="0 0 354 354" fill="none"><metadata><rdf:RDF xmlns:rdf="http://www.w3.org/1999/02/22-rdf-syntax-ns#" xmlns:dc="http://purl.org/dc/elements/1.1/"><rdf:Description><dc:creator>RealFaviconGenerator</dc:creator><dc:source>https://realfavicongenerator.net</dc:source></rdf:Description></rdf:RDF></metadata><path d="M169.73 240.295L169.826 299.895C170.586 302.985 171.907 306.016 174.143 307.241C176.767 308.683 179.944 308.32 182.724 307.017L224.954 281.766H224.963L250.032 310.202L205.747 335.824C191.961 344.138 176.059 342.532 162.713 334.193L138.8 319.249V222.546L169.73 240.295ZM126.645 292.134L126.852 312.499L92.6572 291.581L92.6318 202.967L126.541 182.075L126.645 292.134ZM259.338 305.601H259.32L259.331 305.594L259.338 305.601ZM204.227 122.458C223.823 124.375 238.783 135.908 241.692 155.651L241.485 180.081C241.382 192.987 232.662 202.915 220.654 208.25L291.374 287.36L259.331 305.594L232.836 275.628L150.479 182.689L192.866 182.403C197.769 182.369 201.274 178.062 201.594 173.702L201.628 162.799C201.645 157.706 198.175 154.399 193.143 153.708L152.422 153.665L99.9092 122.57L204.227 122.458ZM153.968 18.6154C167.417 10.7166 185.019 11.2945 198.736 19.4435L303.676 81.7892C313.336 87.53 319.845 99.8146 319.845 110.813L319.871 223.055C319.871 234.951 311.592 244.767 302.191 250.473L282.673 262.325L265.321 242.418L247.589 222.339L267.911 209.623C273.496 206.136 276.086 199.402 276.673 192.944L276.621 139.361C276.621 129.796 271.087 122.069 262.645 117.261H262.653L186.814 73.9943C179.9 70.0493 173.304 69.6864 166.217 73.8214L88.1514 119.359C81.7028 123.122 77.0499 129.183 77.0498 136.952L77.0156 282.612L49.0537 265.218C39.3506 259.184 35.2677 247.71 35 236.41L35.3105 107.593C35.3451 92.9518 46.024 82.3675 57.5918 75.5304L126.956 34.4826L153.968 18.6154Z" fill="url(#paint0_linear_63_105)"></path><defs>
<linearGradient id="paint0_linear_63_105" x1="50.9705" y1="293.132" x2="349.663" y2="61.3438" gradientUnits="userSpaceOnUse">
<stop offset="0.176666" stop-color="#0534FD"></stop>
<stop offset="1" stop-color="#00EAFF"></stop>
</linearGradient>
</defs></svg>