<svg xmlns="http://www.w3.org/2000/svg" width="640" height="560" viewBox="0 0 640 560" fill="none">
  <defs>
    <linearGradient id="panel" x1="0" y1="0" x2="1" y2="1">
      <stop offset="0" stop-color="#132a4d"/>
      <stop offset="1" stop-color="#0b1f3a"/>
    </linearGradient>
    <linearGradient id="accentBar" x1="0" y1="0" x2="1" y2="0">
      <stop offset="0" stop-color="#2563EB"/>
      <stop offset="1" stop-color="#06B6D4"/>
    </linearGradient>
    <radialGradient id="glow" cx="0.5" cy="0.5" r="0.5">
      <stop offset="0" stop-color="#06B6D4" stop-opacity="0.35"/>
      <stop offset="1" stop-color="#06B6D4" stop-opacity="0"/>
    </radialGradient>
  </defs>

  <circle cx="420" cy="180" r="260" fill="url(#glow)"/>

  <rect x="60" y="60" width="520" height="440" rx="28" fill="url(#panel)" opacity="0.95"/>
  <rect x="60" y="60" width="520" height="440" rx="28" stroke="#2563EB" stroke-opacity="0.25"/>

  <rect x="96" y="100" width="140" height="16" rx="8" fill="#ffffff" opacity="0.9"/>
  <rect x="96" y="128" width="90" height="10" rx="5" fill="#94a3b8"/>
  <circle cx="500" cy="108" r="10" fill="#06B6D4"/>
  <circle cx="536" cy="108" r="10" fill="#2563EB"/>
  <circle cx="465" cy="108" r="10" fill="#334155"/>

  <rect x="96" y="168" width="220" height="120" rx="16" fill="#ffffff" opacity="0.06"/>
  <rect x="112" y="188" width="100" height="10" rx="5" fill="#e2e8f0"/>
  <rect x="112" y="212" width="60" height="26" rx="6" fill="url(#accentBar)"/>
  <polyline points="112,264 140,240 168,252 196,220 224,232 252,204 280,216" fill="none" stroke="#06B6D4" stroke-width="3" stroke-linecap="round" stroke-linejoin="round"/>

  <rect x="332" y="168" width="188" height="120" rx="16" fill="#ffffff" opacity="0.06"/>
  <rect x="348" y="188" width="90" height="10" rx="5" fill="#e2e8f0"/>
  <circle cx="426" cy="248" r="38" fill="none" stroke="#334155" stroke-width="10"/>
  <circle cx="426" cy="248" r="38" fill="none" stroke="url(#accentBar)" stroke-width="10" stroke-dasharray="180 240" stroke-linecap="round" transform="rotate(-90 426 248)"/>
  <text x="426" y="254" text-anchor="middle" font-family="Arial" font-size="18" font-weight="700" fill="#ffffff">76%</text>

  <rect x="96" y="308" width="424" height="150" rx="16" fill="#ffffff" opacity="0.06"/>
  <rect x="112" y="326" width="120" height="10" rx="5" fill="#e2e8f0"/>
  <g stroke="#334155" stroke-width="1">
    <line x1="112" y1="420" x2="504" y2="420"/>
  </g>
  <g fill="url(#accentBar)">
    <rect x="128" y="380" width="24" height="40" rx="4"/>
    <rect x="176" y="360" width="24" height="60" rx="4"/>
    <rect x="224" y="340" width="24" height="80" rx="4"/>
    <rect x="272" y="368" width="24" height="52" rx="4"/>
    <rect x="320" y="350" width="24" height="70" rx="4"/>
    <rect x="368" y="330" width="24" height="90" rx="4"/>
    <rect x="416" y="358" width="24" height="62" rx="4"/>
    <rect x="464" y="344" width="24" height="76" rx="4"/>
  </g>

  <g>
    <rect x="-40" y="-40" width="80" height="80" rx="20" fill="#06B6D4" opacity="0.15" transform="translate(90 40)"/>
    <rect x="-30" y="-30" width="60" height="60" rx="16" fill="#2563EB" opacity="0.18" transform="translate(560 480)"/>
    <circle cx="580" cy="90" r="8" fill="#06B6D4"/>
    <circle cx="70" cy="470" r="10" fill="#2563EB"/>
  </g>
</svg>
