<svg width="1750" height="482" viewBox="0 0 1750 482" fill="none" xmlns="http://www.w3.org/2000/svg">
<path d="M241 0C315.043 0 381.285 33.3912 425.494 85.9355C382.421 39.8252 321.077 11 253 11C122.661 11 17 116.661 17 247C17 368.654 109.048 468.809 227.297 481.616C100.572 474.513 0 369.502 0 241C0 107.899 107.899 0 241 0Z" fill="#ffffff"/>
<path d="M554.412 203.171C549.193 199.875 544.043 197.266 538.962 195.343C533.88 193.421 529.074 192.047 524.542 191.223C520.01 190.399 515.89 189.987 512.182 189.987C505.04 189.987 499.341 191.361 495.084 194.107C490.826 196.854 488.698 200.837 488.698 206.055C488.698 210.725 490.071 214.57 492.818 217.591C495.702 220.475 499.41 222.879 503.942 224.801C508.611 226.587 513.692 228.303 519.186 229.951C524.816 231.599 530.378 233.453 535.872 235.513C541.365 237.436 546.447 239.977 551.116 243.135C555.785 246.294 559.493 250.345 562.24 255.289C564.987 260.096 566.36 266.207 566.36 273.623C566.36 282.138 564.025 289.554 559.356 295.871C554.686 302.051 548.232 306.858 539.992 310.291C531.889 313.725 522.55 315.441 511.976 315.441C504.422 315.441 497.075 314.48 489.934 312.557C482.793 310.497 476.063 307.751 469.746 304.317C463.566 300.884 458.004 296.901 453.06 292.369L463.566 272.387C468.51 276.919 473.728 280.765 479.222 283.923C484.852 287.082 490.483 289.485 496.114 291.133C501.882 292.781 507.306 293.605 512.388 293.605C520.902 293.605 527.494 291.957 532.164 288.661C536.97 285.365 539.374 280.765 539.374 274.859C539.374 270.053 537.932 266.207 535.048 263.323C532.301 260.302 528.593 257.83 523.924 255.907C519.392 253.985 514.311 252.268 508.68 250.757C503.187 249.247 497.625 247.53 491.994 245.607C486.501 243.547 481.419 241.007 476.75 237.985C472.218 234.964 468.51 231.05 465.626 226.243C462.879 221.437 461.506 215.325 461.506 207.909C461.506 199.807 463.703 192.803 468.098 186.897C472.493 180.855 478.604 176.185 486.432 172.889C494.397 169.593 503.598 167.945 514.036 167.945C523.374 167.945 532.439 169.319 541.228 172.065C550.017 174.812 557.776 178.383 564.506 182.777L554.412 203.171Z" fill="#ffffff"/>
<path d="M406.861 207.291C401.643 201.523 395.463 196.991 388.321 193.695C381.18 190.399 373.97 188.751 366.691 188.751C359.55 188.751 352.821 190.125 346.503 192.871C340.323 195.481 334.83 199.189 330.023 203.995C325.354 208.802 321.715 214.433 319.105 220.887C316.496 227.205 315.191 234.071 315.191 241.487C315.191 248.766 316.496 255.633 319.105 262.087C321.715 268.405 325.354 273.967 330.023 278.773C334.83 283.58 340.323 287.357 346.503 290.103C352.821 292.85 359.55 294.223 366.691 294.223C373.97 294.223 381.111 292.713 388.115 289.691C395.119 286.533 401.368 282.275 406.861 276.919L421.281 291.957C416.475 296.764 410.981 300.953 404.801 304.523C398.759 308.094 392.373 310.841 385.643 312.763C379.051 314.686 372.322 315.647 365.455 315.647C354.881 315.647 345.061 313.793 335.997 310.085C326.933 306.24 318.968 300.953 312.101 294.223C305.372 287.494 300.085 279.666 296.239 270.739C292.394 261.675 290.471 251.993 290.471 241.693C290.471 231.393 292.394 221.849 296.239 213.059C300.085 204.133 305.441 196.305 312.307 189.575C319.311 182.846 327.345 177.627 336.409 173.919C345.611 170.211 355.567 168.357 366.279 168.357C373.146 168.357 379.875 169.25 386.467 171.035C393.059 172.821 399.308 175.361 405.213 178.657C411.119 181.953 416.406 185.936 421.075 190.605L406.861 207.291Z" fill="#ffffff"/>
<path d="M191.456 169.801C209.996 169.801 224.279 174.127 234.304 182.779C244.467 191.293 249.548 203.31 249.548 218.829C249.548 235.034 244.467 247.669 234.304 256.733C224.279 265.659 209.996 270.123 191.456 270.123H157.26V314.001H132.952V169.801H191.456ZM191.456 249.317C202.58 249.317 211.163 246.913 217.206 242.107C223.386 237.163 226.476 229.609 226.476 219.447C226.476 209.696 223.386 202.486 217.206 197.817C211.163 193.01 202.58 190.607 191.456 190.607H157.26V249.317H191.456ZM192.28 260.647H216.176L252.02 314.001H224.416L192.28 260.647Z" fill="#ffffff"/>
<path d="M1688.4 207H1700.2V237.7H1737.3V207H1749.1V277H1737.3V247.7H1700.2V277H1688.4V207Z" fill="#ffffff"/>
<path d="M1639.38 225.201C1636.84 222.401 1633.84 220.201 1630.38 218.601C1626.91 217.001 1623.41 216.201 1619.88 216.201C1616.41 216.201 1613.14 216.867 1610.08 218.201C1607.08 219.467 1604.41 221.267 1602.08 223.601C1599.81 225.934 1598.04 228.667 1596.78 231.801C1595.51 234.867 1594.88 238.201 1594.88 241.801C1594.88 245.334 1595.51 248.667 1596.78 251.801C1598.04 254.867 1599.81 257.567 1602.08 259.901C1604.41 262.234 1607.08 264.067 1610.08 265.401C1613.14 266.734 1616.41 267.401 1619.88 267.401C1623.41 267.401 1626.88 266.667 1630.28 265.201C1633.68 263.667 1636.71 261.601 1639.38 259.001L1646.38 266.301C1644.04 268.634 1641.38 270.667 1638.38 272.401C1635.44 274.134 1632.34 275.467 1629.08 276.401C1625.88 277.334 1622.61 277.801 1619.28 277.801C1614.14 277.801 1609.38 276.901 1604.98 275.101C1600.58 273.234 1596.71 270.667 1593.38 267.401C1590.11 264.134 1587.54 260.334 1585.68 256.001C1583.81 251.601 1582.88 246.901 1582.88 241.901C1582.88 236.901 1583.81 232.267 1585.68 228.001C1587.54 223.667 1590.14 219.867 1593.48 216.601C1596.88 213.334 1600.78 210.801 1605.18 209.001C1609.64 207.201 1614.48 206.301 1619.68 206.301C1623.01 206.301 1626.28 206.734 1629.48 207.601C1632.68 208.467 1635.71 209.701 1638.58 211.301C1641.44 212.901 1644.01 214.834 1646.28 217.101L1639.38 225.201Z" fill="#ffffff"/>
<path d="M1493.05 207H1543.05V217.1H1504.85V236.8H1539.05V246.8H1504.85V266.9H1544.25V277H1493.05V207Z" fill="#ffffff"/>
<path d="M1396.84 207H1452.94V217.1H1430.74V277H1418.94V217.1H1396.84V207Z" fill="#ffffff"/>
<path d="M1266.16 207H1278.26L1308.86 277H1296.26L1271.86 218.9L1247.56 277H1235.26L1266.16 207ZM1250.66 250.8H1292.56V260.8H1250.66V250.8Z" fill="#ffffff"/>
<path d="M1170.49 207C1179.49 207 1186.43 209.1 1191.29 213.3C1196.23 217.433 1198.69 223.267 1198.69 230.8C1198.69 238.667 1196.23 244.8 1191.29 249.2C1186.43 253.533 1179.49 255.7 1170.49 255.7H1153.89V277H1142.09V207H1170.49ZM1170.49 245.6C1175.89 245.6 1180.06 244.433 1182.99 242.1C1185.99 239.7 1187.49 236.033 1187.49 231.1C1187.49 226.367 1185.99 222.867 1182.99 220.6C1180.06 218.267 1175.89 217.1 1170.49 217.1H1153.89V245.6H1170.49ZM1170.89 251.1H1182.49L1199.89 277H1186.49L1170.89 251.1Z" fill="#ffffff"/>
<path d="M1054.57 207H1101.57L1101.47 217.1H1066.37V237.9H1098.17V247.9H1066.37V277H1054.57V207Z" fill="#ffffff"/>
<path d="M945.376 207H956.976L997.476 262.5L994.476 263.5V207H1006.08V277H994.476L954.076 221.6L957.176 220.6V277H945.376V207Z" fill="#ffffff"/>
<path d="M885.2 207H897V277H885.2V207Z" fill="#ffffff"/>
<path d="M734 366H726V115H734V366Z" fill="white" fill-opacity="0.2"/>
</svg>
