<svg width="864" height="594" viewBox="0 0 864 594" fill="none" xmlns="http://www.w3.org/2000/svg">
<path d="M384.8 0C458.843 0 525.086 33.3912 569.294 85.9355C526.221 39.8252 464.877 11 396.8 11C266.461 11 160.8 116.661 160.8 247C160.8 368.654 252.848 468.809 371.097 481.616C244.372 474.513 143.8 369.502 143.8 241C143.8 107.899 251.699 0 384.8 0Z" fill="#2563EB"/>
<path d="M698.212 203.171C692.993 199.875 687.843 197.266 682.762 195.343C677.681 193.421 672.874 192.047 668.342 191.223C663.81 190.399 659.69 189.987 655.982 189.987C648.841 189.987 643.141 191.361 638.884 194.107C634.627 196.854 632.498 200.837 632.498 206.055C632.498 210.725 633.871 214.57 636.618 217.591C639.502 220.475 643.21 222.879 647.742 224.801C652.411 226.587 657.493 228.303 662.986 229.951C668.617 231.599 674.179 233.453 679.672 235.513C685.165 237.436 690.247 239.977 694.916 243.135C699.585 246.294 703.293 250.345 706.04 255.289C708.787 260.096 710.16 266.207 710.16 273.623C710.16 282.138 707.825 289.554 703.156 295.871C698.487 302.051 692.032 306.858 683.792 310.291C675.689 313.725 666.351 315.441 655.776 315.441C648.223 315.441 640.875 314.48 633.734 312.557C626.593 310.497 619.863 307.751 613.546 304.317C607.366 300.884 601.804 296.901 596.86 292.369L607.366 272.387C612.31 276.919 617.529 280.765 623.022 283.923C628.653 287.082 634.283 289.485 639.914 291.133C645.682 292.781 651.107 293.605 656.188 293.605C664.703 293.605 671.295 291.957 675.964 288.661C680.771 285.365 683.174 280.765 683.174 274.859C683.174 270.053 681.732 266.207 678.848 263.323C676.101 260.302 672.393 257.83 667.724 255.907C663.192 253.985 658.111 252.268 652.48 250.757C646.987 249.247 641.425 247.53 635.794 245.607C630.301 243.547 625.219 241.007 620.55 237.985C616.018 234.964 612.31 231.05 609.426 226.243C606.679 221.437 605.306 215.325 605.306 207.909C605.306 199.807 607.503 192.803 611.898 186.897C616.293 180.855 622.404 176.185 630.232 172.889C638.197 169.593 647.399 167.945 657.836 167.945C667.175 167.945 676.239 169.319 685.028 172.065C693.817 174.812 701.577 178.383 708.306 182.777L698.212 203.171Z" fill="white"/>
<path d="M550.661 207.291C545.443 201.523 539.263 196.991 532.121 193.695C524.98 190.399 517.77 188.751 510.491 188.751C503.35 188.751 496.621 190.125 490.303 192.871C484.123 195.481 478.63 199.189 473.823 203.995C469.154 208.802 465.515 214.433 462.905 220.887C460.296 227.205 458.991 234.071 458.991 241.487C458.991 248.766 460.296 255.633 462.905 262.087C465.515 268.405 469.154 273.967 473.823 278.773C478.63 283.58 484.123 287.357 490.303 290.103C496.621 292.85 503.35 294.223 510.491 294.223C517.77 294.223 524.911 292.713 531.915 289.691C538.919 286.533 545.168 282.275 550.661 276.919L565.081 291.957C560.275 296.764 554.781 300.953 548.601 304.523C542.559 308.094 536.173 310.841 529.443 312.763C522.851 314.686 516.122 315.647 509.255 315.647C498.681 315.647 488.861 313.793 479.797 310.085C470.733 306.24 462.768 300.953 455.901 294.223C449.172 287.494 443.885 279.666 440.039 270.739C436.194 261.675 434.271 251.993 434.271 241.693C434.271 231.393 436.194 221.849 440.039 213.059C443.885 204.133 449.241 196.305 456.107 189.575C463.111 182.846 471.145 177.627 480.209 173.919C489.411 170.211 499.367 168.357 510.079 168.357C516.946 168.357 523.675 169.25 530.267 171.035C536.859 172.821 543.108 175.361 549.013 178.657C554.919 181.953 560.206 185.936 564.875 190.605L550.661 207.291Z" fill="white"/>
<path d="M335.256 169.801C353.796 169.801 368.079 174.127 378.104 182.779C388.267 191.293 393.348 203.31 393.348 218.829C393.348 235.034 388.267 247.669 378.104 256.733C368.079 265.659 353.796 270.123 335.256 270.123H301.06V314.001H276.752V169.801H335.256ZM335.256 249.317C346.38 249.317 354.963 246.913 361.006 242.107C367.186 237.163 370.276 229.609 370.276 219.447C370.276 209.696 367.186 202.486 361.006 197.817C354.963 193.01 346.38 190.607 335.256 190.607H301.06V249.317H335.256ZM336.08 260.647H359.976L395.82 314.001H368.216L336.08 260.647Z" fill="white"/>
<path d="M803.203 523H815.003V553.7H852.103V523H863.903V593H852.103V563.7H815.003V593H803.203V523Z" fill="#2563EB"/>
<path d="M754.177 541.201C751.643 538.401 748.643 536.201 745.177 534.601C741.71 533.001 738.21 532.201 734.677 532.201C731.21 532.201 727.943 532.867 724.876 534.201C721.876 535.467 719.21 537.267 716.876 539.601C714.61 541.934 712.843 544.667 711.576 547.801C710.31 550.867 709.677 554.201 709.677 557.801C709.677 561.334 710.31 564.667 711.576 567.801C712.843 570.867 714.61 573.567 716.876 575.901C719.21 578.234 721.876 580.067 724.876 581.401C727.943 582.734 731.21 583.401 734.677 583.401C738.21 583.401 741.676 582.667 745.076 581.201C748.476 579.667 751.51 577.601 754.177 575.001L761.177 582.301C758.843 584.634 756.177 586.667 753.177 588.401C750.243 590.134 747.143 591.467 743.876 592.401C740.676 593.334 737.41 593.801 734.076 593.801C728.943 593.801 724.176 592.901 719.776 591.101C715.376 589.234 711.51 586.667 708.177 583.401C704.91 580.134 702.343 576.334 700.477 572.001C698.61 567.601 697.677 562.901 697.677 557.901C697.677 552.901 698.61 548.267 700.477 544.001C702.343 539.667 704.943 535.867 708.276 532.601C711.676 529.334 715.577 526.801 719.977 525.001C724.443 523.201 729.277 522.301 734.477 522.301C737.81 522.301 741.076 522.734 744.276 523.601C747.476 524.467 750.51 525.701 753.376 527.301C756.243 528.901 758.81 530.834 761.076 533.101L754.177 541.201Z" fill="#2563EB"/>
<path d="M607.852 523H657.852V533.1H619.652V552.8H653.852V562.8H619.652V582.9H659.052V593H607.852V523Z" fill="#2563EB"/>
<path d="M511.641 523H567.741V533.1H545.541V593H533.741V533.1H511.641V523Z" fill="#2563EB"/>
<path d="M380.96 523H393.06L423.66 593H411.06L386.66 534.9L362.36 593H350.06L380.96 523ZM365.46 566.8H407.36V576.8H365.46V566.8Z" fill="#2563EB"/>
<path d="M285.295 523C294.295 523 301.228 525.1 306.095 529.3C311.028 533.433 313.495 539.267 313.495 546.8C313.495 554.667 311.028 560.8 306.095 565.2C301.228 569.533 294.295 571.7 285.295 571.7H268.695V593H256.895V523H285.295ZM285.295 561.6C290.695 561.6 294.861 560.433 297.795 558.1C300.795 555.7 302.295 552.033 302.295 547.1C302.295 542.367 300.795 538.867 297.795 536.6C294.861 534.267 290.695 533.1 285.295 533.1H268.695V561.6H285.295ZM285.695 567.1H297.295L314.695 593H301.295L285.695 567.1Z" fill="#2563EB"/>
<path d="M169.375 523H216.375L216.275 533.1H181.175V553.9H212.975V563.9H181.175V593H169.375V523Z" fill="#2563EB"/>
<path d="M60.1758 523H71.7758L112.276 578.5L109.276 579.5V523H120.876V593H109.276L68.8758 537.6L71.9758 536.6V593H60.1758V523Z" fill="#2563EB"/>
<path d="M0 523H11.8V593H0V523Z" fill="#2563EB"/>
</svg>
