<svg width="873" height="329" viewBox="0 0 873 329" fill="none" xmlns="http://www.w3.org/2000/svg">
<path d="M469.999 154.304L539.329 222.154L471.369 222.424L403.859 154.074L399.409 154.164V222.394H347.869V28.2944L473.029 28.2344C481.379 28.2344 488.509 29.0044 496.399 31.5544C512.979 37.6744 525.889 52.3144 525.949 70.5644L526.079 112.154C526.149 134.264 506.729 152.834 486.519 153.644L469.999 154.304ZM476.349 102.974L476.239 81.0544C476.219 76.7544 473.229 73.1144 469.039 72.2644H399.459L399.419 112.304H467.989C472.959 111.464 476.389 108.364 476.359 102.974H476.349Z" fill="white"/>
<path d="M595.75 179.365H701.9L674.07 222.415L581.39 222.385C557.85 219.305 537.98 202.435 538 177.905L538.09 73.4146C538.11 48.4347 559.6 31.0646 583.62 28.2946L708.16 28.2646L679.76 72.2546L596.22 72.2846C592.24 72.5746 588.04 75.7846 588.04 80.2646L588 170.235C588 174.825 590.83 178.325 595.75 179.365Z" fill="white"/>
<path d="M700 222.434L728.73 179.414L813.97 179.344C819.19 179.344 822.34 175.004 822.29 170.394L822.12 154.854C822.06 149.584 818 146.734 813.09 146.724L752.9 146.474C733.43 146.434 710.51 128.764 710.55 106.334L710.62 71.3544C710.67 46.5744 734.41 27.3044 760.46 28.2544L871.57 28.3144L842.98 72.2744L768.19 72.2344C763.58 72.4944 759.79 75.7244 759.83 80.3244L759.96 98.0744C759.99 102.294 764.23 105.314 768.2 105.334L831.17 105.854C852.52 105.954 869.24 123.834 870.62 144.484L870.58 182.464C870.56 203.124 850.68 222.374 825.64 222.384L700.02 222.434H700Z" fill="white"/>
<path d="M865.986 322.717L853.885 323L853.8 304.461L827.144 304.476V322.943L815 322.816V277.269L827.073 277L827.129 294.761L853.814 294.775L853.856 277.014L866 277.226L865.986 322.717Z" fill="#286CFF"/>
<path d="M765.292 310.356C774.694 316.895 787.039 314.895 794.098 306.229L805 310.654C794.812 328.014 764.635 327.688 752.589 314.015C746.217 306.796 745.117 297.208 750.203 288.896C760.291 272.372 792.855 270.755 804.8 289.733L794.269 293.52C786.382 283.96 772.079 283.095 763.72 291.137C757.905 296.754 758.405 305.548 765.306 310.342L765.292 310.356Z" fill="#286CFF"/>
<path d="M736.894 304.691L707.189 304.775L707.345 313.704L740.957 313.633L740.929 322.929L695.028 323L695 277.071L741 277L740.702 287.117L707.359 287.145V294.772L736.767 294.588L736.894 304.691Z" fill="#286CFF"/>
<path d="M667.814 323.812L655.207 324L655.307 287.419L635.113 287.375L635 277.087L686.887 277L687 287.217L667.828 287.592L667.814 323.812Z" fill="#286CFF"/>
<path d="M589.269 313.267L562.468 313.037L556.969 322.785L544 322.641L569.2 276.244L582.083 276L607 322.655L594.145 323L589.269 313.267ZM583.246 303.146L575.89 287.585L567.726 303.376L583.231 303.146H583.246Z" fill="#286CFF"/>
<path d="M527.516 322.986L512.485 307.1L500.386 306.791L500.07 322.565L488 322.649L488.043 277L524.901 277.478C533.292 277.59 538.753 284.809 538.911 290.962C539.112 298.94 535.045 304.628 526.151 306.3L542 322.298L527.53 323L527.516 322.986ZM522.673 296.903C524.613 296.861 527.746 292.942 527.056 291.256C526.467 289.81 523.248 287.239 521.524 287.225L500.501 287.043L500.444 297.338L522.673 296.903Z" fill="#286CFF"/>
<path d="M477.681 296.528L477.984 305.924L446.482 305.909L446.439 323L434.101 322.872L434 277.057L481 277L480.726 287.147L445.746 287.26L445.847 296.911L477.681 296.528Z" fill="#286CFF"/>
<path d="M424 322.773L412.337 322.943L385.538 293.232L384.903 322.957L373.042 323L373 277.043L386.315 277.213L411.49 305.193L412.154 277L423.887 277.085L424 322.773Z" fill="#286CFF"/>
<path d="M360 277H348V323H360V277Z" fill="#286CFF"/>
<path d="M347.896 248.001L347.891 255.561L872.127 255.927L872.132 248.367L347.896 248.001Z" fill="#286CFF"/>
<path d="M134.73 227.295L134.826 286.895C135.586 289.985 136.907 293.016 139.143 294.241C141.767 295.683 144.944 295.32 147.724 294.017L189.954 268.766H189.963L215.032 297.202L170.747 322.824C156.961 331.138 141.059 329.532 127.713 321.193L103.8 306.249V209.546L134.73 227.295ZM91.6445 279.134L91.8516 299.499L57.6572 278.581L57.6318 189.967L91.541 169.075L91.6445 279.134ZM224.338 292.601H224.32L224.331 292.594L224.338 292.601ZM169.227 109.458C188.823 111.375 203.783 122.908 206.692 142.651L206.485 167.081C206.382 179.987 197.662 189.915 185.654 195.25L256.374 274.36L224.331 292.594L197.836 262.628L115.479 169.689L157.866 169.403C162.769 169.369 166.274 165.062 166.594 160.702L166.628 149.799C166.645 144.706 163.175 141.399 158.143 140.708L117.422 140.665L64.9092 109.57L169.227 109.458ZM118.968 5.61537C132.417 -2.28336 150.019 -1.7055 163.736 6.44349L268.676 68.7892C278.336 74.53 284.845 86.8146 284.845 97.8126L284.871 210.055C284.871 221.951 276.592 231.767 267.191 237.473L247.673 249.325L230.321 229.418L212.589 209.339L232.911 196.623C238.496 193.136 241.086 186.402 241.673 179.944L241.621 126.361C241.621 116.796 236.087 109.069 227.645 104.261H227.653L151.814 60.9943C144.9 57.0493 138.304 56.6864 131.217 60.8214L53.1514 106.359C46.7028 110.122 42.0499 116.183 42.0498 123.952L42.0156 269.612L14.0537 252.218C4.3506 246.184 0.267661 234.71 0 223.41L0.310547 94.5929C0.345078 79.9518 11.024 69.3675 22.5918 62.5304L91.9561 21.4826L118.968 5.61537Z" fill="url(#paint0_linear_61_96)"/>
<defs>
<linearGradient id="paint0_linear_61_96" x1="15.9705" y1="280.132" x2="314.663" y2="48.3438" gradientUnits="userSpaceOnUse">
<stop offset="0.176666" stop-color="#0534FD"/>
<stop offset="1" stop-color="#00EAFF"/>
</linearGradient>
</defs>
</svg>
