<svg width="873" height="329" viewBox="0 0 873 329" fill="none" xmlns="http://www.w3.org/2000/svg">
<path d="M469.999 154.305L539.329 222.155L471.369 222.425L403.859 154.075L399.409 154.165V222.395H347.869V28.2949L473.029 28.2349C481.379 28.2349 488.509 29.0049 496.399 31.5549C512.979 37.6749 525.889 52.3149 525.949 70.5649L526.079 112.155C526.149 134.265 506.729 152.835 486.519 153.645L469.999 154.305ZM476.349 102.975L476.239 81.0549C476.219 76.7549 473.229 73.1149 469.039 72.2649H399.459L399.419 112.305H467.989C472.959 111.465 476.389 108.365 476.359 102.975H476.349Z" fill="#07183F"/>
<path d="M595.75 179.365H701.9L674.07 222.415L581.39 222.385C557.85 219.305 537.98 202.435 538 177.905L538.09 73.4146C538.11 48.4347 559.6 31.0646 583.62 28.2946L708.16 28.2646L679.76 72.2546L596.22 72.2846C592.24 72.5746 588.04 75.7846 588.04 80.2646L588 170.235C588 174.825 590.83 178.325 595.75 179.365Z" fill="#07183F"/>
<path d="M700 222.435L728.73 179.415L813.97 179.345C819.19 179.345 822.34 175.005 822.29 170.395L822.12 154.855C822.06 149.585 818 146.735 813.09 146.725L752.9 146.475C733.43 146.435 710.51 128.765 710.55 106.335L710.62 71.3549C710.67 46.5749 734.41 27.3049 760.46 28.2549L871.57 28.3149L842.98 72.2749L768.19 72.2349C763.58 72.4949 759.79 75.7249 759.83 80.3249L759.96 98.0749C759.99 102.295 764.23 105.315 768.2 105.335L831.17 105.855C852.52 105.955 869.24 123.835 870.62 144.485L870.58 182.465C870.56 203.125 850.68 222.375 825.64 222.385L700.02 222.435H700Z" fill="#07183F"/>
<path d="M865.986 322.717L853.885 323L853.8 304.461L827.144 304.476V322.943L815 322.816V277.269L827.073 277L827.129 294.761L853.814 294.775L853.856 277.014L866 277.226L865.986 322.717Z" fill="#286CFF"/>
<path d="M765.292 310.356C774.694 316.895 787.039 314.895 794.098 306.229L805 310.654C794.812 328.014 764.635 327.688 752.589 314.015C746.217 306.796 745.117 297.208 750.203 288.896C760.291 272.372 792.855 270.755 804.8 289.733L794.269 293.52C786.382 283.96 772.079 283.095 763.72 291.137C757.905 296.754 758.405 305.548 765.306 310.342L765.292 310.356Z" fill="#286CFF"/>
<path d="M736.894 304.691L707.189 304.775L707.345 313.704L740.957 313.633L740.929 322.929L695.028 323L695 277.071L741 277L740.702 287.117L707.359 287.145V294.772L736.767 294.588L736.894 304.691Z" fill="#286CFF"/>
<path d="M667.814 323.812L655.207 324L655.307 287.419L635.113 287.375L635 277.087L686.887 277L687 287.217L667.828 287.592L667.814 323.812Z" fill="#286CFF"/>
<path d="M589.269 313.267L562.468 313.037L556.969 322.785L544 322.641L569.2 276.244L582.083 276L607 322.655L594.145 323L589.269 313.267ZM583.246 303.146L575.89 287.585L567.726 303.376L583.231 303.146H583.246Z" fill="#286CFF"/>
<path d="M527.516 322.986L512.485 307.1L500.386 306.791L500.07 322.565L488 322.649L488.043 277L524.901 277.478C533.292 277.59 538.753 284.809 538.911 290.962C539.112 298.94 535.045 304.628 526.151 306.3L542 322.298L527.53 323L527.516 322.986ZM522.673 296.903C524.613 296.861 527.746 292.942 527.056 291.256C526.467 289.81 523.248 287.239 521.524 287.225L500.501 287.043L500.444 297.338L522.673 296.903Z" fill="#286CFF"/>
<path d="M477.681 296.528L477.984 305.924L446.482 305.909L446.439 323L434.101 322.872L434 277.057L481 277L480.726 287.147L445.746 287.26L445.847 296.911L477.681 296.528Z" fill="#286CFF"/>
<path d="M424 322.773L412.337 322.943L385.538 293.232L384.903 322.957L373.042 323L373 277.043L386.315 277.213L411.49 305.193L412.154 277L423.887 277.085L424 322.773Z" fill="#286CFF"/>
<path d="M360 277H348V323H360V277Z" fill="#286CFF"/>
<path d="M347.896 248L347.891 255.56L872.127 255.926L872.132 248.366L347.896 248Z" fill="#286CFF"/>
<path d="M134.73 227.294L134.826 286.895C135.586 289.985 136.907 293.016 139.143 294.241C141.767 295.683 144.944 295.32 147.724 294.017L189.954 268.766H189.963L215.032 297.202L170.747 322.824C156.961 331.138 141.059 329.532 127.713 321.193L103.8 306.249V209.545L134.73 227.294ZM91.6445 279.134L91.8516 299.498L57.6572 278.581L57.6318 189.967L91.541 169.075L91.6445 279.134ZM224.338 292.601H224.32L224.331 292.594L224.338 292.601ZM169.227 109.458C188.823 111.375 203.783 122.908 206.692 142.651L206.485 167.081C206.382 179.987 197.662 189.915 185.654 195.25L256.374 274.361L224.331 292.594L197.836 262.628L115.479 169.689L157.866 169.404C162.769 169.369 166.274 165.061 166.594 160.701L166.628 149.799C166.645 144.706 163.175 141.399 158.143 140.708L117.422 140.665L64.9092 109.571L169.227 109.458ZM118.968 5.61542C132.417 -2.28337 150.019 -1.70551 163.736 6.44355L268.676 68.7893C278.336 74.53 284.845 86.8146 284.845 97.8127L284.871 210.055C284.871 221.951 276.592 231.767 267.191 237.473L247.673 249.325L230.321 229.418L212.589 209.339L232.911 196.622C238.496 193.135 241.086 186.402 241.673 179.945L241.621 126.361C241.621 116.796 236.087 109.069 227.645 104.261H227.653L151.814 60.9943C144.9 57.0493 138.304 56.6864 131.217 60.8215L53.1514 106.359C46.7027 110.122 42.0498 116.183 42.0498 123.952L42.0156 269.612L14.0537 252.217C4.35088 246.183 0.267699 234.71 0 223.41L0.310547 94.593C0.345078 79.9519 11.024 69.3676 22.5918 62.5305L91.9561 21.4816L118.968 5.61542Z" fill="url(#paint0_linear_61_95)"/>
<defs>
<linearGradient id="paint0_linear_61_95" x1="15.9705" y1="280.132" x2="314.663" y2="48.3438" gradientUnits="userSpaceOnUse">
<stop offset="0.176666" stop-color="#0534FD"/>
<stop offset="1" stop-color="#00EAFF"/>
</linearGradient>
</defs>
</svg>
