<svg width="1611" height="364" viewBox="0 0 1611 364" fill="none" xmlns="http://www.w3.org/2000/svg">
<path d="M584.135 284.642C584.135 279.119 588.612 274.642 594.135 274.642H633.229C638.752 274.642 643.229 279.119 643.229 284.642V296.065C643.229 301.588 647.706 306.065 653.229 306.065H729.74C735.263 306.065 739.74 301.588 739.74 296.065V240.583C739.74 235.06 735.263 230.583 729.74 230.583H671.369C659.018 230.583 647.841 229.645 637.835 227.769C627.986 225.893 619.544 222.532 612.509 217.685C605.631 212.683 600.315 205.804 596.563 197.049C592.968 188.139 591.17 176.804 591.17 163.047V92.67C591.17 79.2253 593.124 68.3602 597.032 60.0745C600.941 51.6325 606.412 45.0665 613.447 40.3765C620.482 35.6865 628.924 32.5598 638.773 30.9965C648.622 29.2768 659.487 28.417 671.369 28.417H713.476C725.513 28.417 736.457 29.2768 746.306 30.9965C756.155 32.5598 764.597 35.6865 771.632 40.3765C778.823 45.0665 784.373 51.6325 788.281 60.0745C792.19 68.3602 794.144 79.2253 794.144 92.67V106.12C794.144 111.643 789.667 116.12 784.144 116.12H745.05C739.527 116.12 735.05 111.643 735.05 106.12V95.635C735.05 90.1121 730.573 85.635 725.05 85.635H660.264C654.741 85.635 650.264 90.1121 650.264 95.635V163.365C650.264 168.888 654.741 173.365 660.264 173.365H718.166C730.203 173.365 741.147 174.225 750.996 175.944C760.845 177.508 769.287 180.634 776.322 185.324C783.513 190.014 789.063 196.58 792.971 205.022C796.88 213.308 798.834 224.173 798.834 237.618V296.216C798.834 323.887 791.642 342.022 777.26 350.62C763.033 359.062 743.335 363.283 718.166 363.283H664.334C651.983 363.283 640.806 362.345 630.8 360.469C620.951 358.749 612.509 355.466 605.474 350.62C598.596 345.617 593.28 338.739 589.528 329.984C585.933 321.229 584.135 309.973 584.135 296.216V284.642Z" fill="#0D173A"/>
<path d="M312 92.67C312 69.689 318.175 53.274 330.526 43.425C343.032 33.4197 363.59 28.417 392.199 28.417H457.12C486.042 28.417 506.678 33.4197 519.028 43.425C531.535 53.274 537.788 69.689 537.788 92.67V139.888C537.788 145.411 533.311 149.888 527.788 149.888H485.88C480.357 149.888 475.88 145.411 475.88 139.888V95.635C475.88 90.1121 471.403 85.635 465.88 85.635H383.908C378.385 85.635 373.908 90.1121 373.908 95.635V296.065C373.908 301.588 378.385 306.065 383.908 306.065H467.756C473.279 306.065 477.756 301.588 477.756 296.065V245.715C477.756 240.192 482.233 235.715 487.756 235.715H529.664C535.187 235.715 539.664 240.192 539.664 245.715V296.216C539.664 320.448 533.489 337.722 521.139 348.04C508.945 358.202 488.23 363.283 458.996 363.283H392.199C362.965 363.283 342.251 358.202 330.056 348.04C318.019 337.722 312 320.448 312 296.216V92.67Z" fill="#0D173A"/>
<path d="M135 0.00688183C135 0.0106465 135.003 0.013713 135.007 0.0137637C214.715 1.0876 279 66.0364 279 146C279 207.02 241.566 259.295 188.409 281.116C180.326 284.434 178.38 296.044 185.639 300.907L246.527 341.692C254.738 347.192 250.845 360 240.962 360H191.424C189.416 360 187.455 359.396 185.796 358.266L74.6277 282.581C67.9891 278.061 59 282.816 59 290.847V350C59 355.523 54.5228 360 49 360H10C4.47715 360 0 355.523 0 350V10C0 4.47716 4.47715 0 10 0H134.993C134.997 0 135 0.0030811 135 0.00688183ZM59 81.2412C59 83.5684 58.1726 85.8109 56.757 87.6581C44.3648 103.828 37 124.054 37 146C37 168.823 44.9666 189.784 58.2676 206.259C75.8657 228.056 102.804 242 133 242C186.019 242 229 199.019 229 146C229 93.6525 187.102 51.092 135.011 50.0217C135.005 50.0216 135 50.0168 135 50.0109C135 50.0049 134.995 50 134.989 50H69C63.4772 50 59 54.4772 59 60V81.2412ZM133 92C162.823 92 187 116.177 187 146C187 175.823 162.823 200 133 200C103.177 200 79 175.823 79 146C79 116.177 103.177 92 133 92Z" fill="url(#paint0_linear_41_290)"/>
<path d="M1347.07 231.43C1353.09 231.43 1359.04 232.042 1364.94 233.267C1370.84 234.491 1376.47 236.106 1381.81 238.11L1383.31 238.611L1377.63 264.83L1373.46 264.329C1369.01 263.661 1364.78 263.16 1360.77 262.826C1356.87 262.381 1352.92 262.158 1348.91 262.158C1342.68 262.158 1337.33 263.16 1332.88 265.164C1328.54 267.057 1325.2 270.118 1322.86 274.349C1320.63 278.579 1319.52 284.202 1319.52 291.216C1319.52 298.452 1320.58 304.242 1322.69 308.584C1324.81 312.814 1327.92 315.876 1332.04 317.769C1336.27 319.661 1341.56 320.608 1347.91 320.608C1351.36 320.608 1355.15 320.386 1359.26 319.94C1363.5 319.495 1368.06 318.938 1372.96 318.27L1380.14 317.268L1385.32 343.32L1382.48 344.489C1376.8 346.716 1370.73 348.441 1364.27 349.666C1357.93 350.891 1351.75 351.503 1345.74 351.503C1333.82 351.503 1323.3 349.332 1314.17 344.99C1305.04 340.537 1297.86 333.857 1292.63 324.95C1287.51 316.044 1284.95 304.854 1284.95 291.383C1284.95 281.586 1286.51 272.957 1289.62 265.498C1292.85 258.039 1297.31 251.804 1302.99 246.794C1308.66 241.673 1315.23 237.831 1322.69 235.271C1330.26 232.71 1338.39 231.43 1347.07 231.43ZM984.053 262.659H948.147V350H914.581V262.659H878.342V233.101H984.053V262.659ZM1182.54 261.991H1122.59V277.856H1175.86V303.407H1122.59V320.942H1183.71V350H1088.85V233.101H1182.54V261.991ZM1522.62 275.686H1566.38V233.101H1600.11V350H1566.38V305.244H1522.62V350H1488.89V233.101H1522.62V275.686ZM1611 205H874V196H1611V205ZM917.921 156H884.188V39.1006H917.921V156ZM1064.91 98.7188H1065.25V39.1006H1098.65V156H1070.09L1020.83 94.5439H1020.49V156H986.925V39.1006H1016.98L1064.91 98.7188ZM1259.13 68.6592H1201.35V88.6992H1252.45V114.417H1201.35V156H1167.62V39.1006H1259.13V68.6592ZM1380.37 39.1006C1389.16 39.1006 1396.73 40.6591 1403.08 43.7764C1409.42 46.8936 1414.32 51.2909 1417.78 56.9688C1421.34 62.6467 1423.12 69.3826 1423.12 77.1758C1423.12 84.5237 1421.62 90.7029 1418.61 95.7129C1415.72 100.611 1411.76 104.564 1406.75 107.57C1405.24 108.467 1403.65 109.289 1401.99 110.036L1429.63 156H1392.39L1370.07 115.753H1354.48V156H1320.75V39.1006H1380.37ZM1606.25 156H1570.52L1564.79 138.131H1522.71L1516.91 156H1482.34L1525.09 39.1006H1562.83L1606.25 156ZM1530.95 112.747H1556.65L1544.13 73.6689H1543.63L1530.95 112.747ZM1354.48 92.2061H1373.52C1379.09 92.2061 1383.21 91.1485 1385.88 89.0332C1388.55 86.9179 1389.89 83.6886 1389.89 79.3467C1389.89 75.1164 1388.55 72.0547 1385.88 70.1621C1383.32 68.1581 1379.2 67.1562 1373.52 67.1562H1354.48V92.2061Z" fill="url(#paint1_linear_41_290)"/>
<defs>
<linearGradient id="paint0_linear_41_290" x1="20" y1="360" x2="257.5" y2="60.5" gradientUnits="userSpaceOnUse">
<stop stop-color="#2563EB"/>
<stop offset="1" stop-color="#0BE1FD"/>
</linearGradient>
<linearGradient id="paint1_linear_41_290" x1="874" y1="195.302" x2="1611" y2="195.302" gradientUnits="userSpaceOnUse">
<stop stop-color="#2563EB"/>
<stop offset="1" stop-color="#0BE1FD"/>
</linearGradient>
</defs>
</svg>
