<svg xmlns="http://www.w3.org/2000/svg" width="596" height="596" viewBox="0 0 596 596" fill="none"><metadata><rdf:RDF xmlns:rdf="http://www.w3.org/1999/02/22-rdf-syntax-ns#" xmlns:dc="http://purl.org/dc/elements/1.1/"><rdf:Description><dc:creator>RealFaviconGenerator</dc:creator><dc:source>https://realfavicongenerator.net</dc:source></rdf:Description></rdf:RDF></metadata><path d="M256 57C330.043 57 396.285 90.3912 440.494 142.936C397.421 96.8252 336.077 68 268 68C137.661 68 32 173.661 32 304C32 425.654 124.048 525.809 242.297 538.616C115.572 531.513 15 426.502 15 298C15 164.899 122.899 57 256 57Z" fill="#2563EB"></path><path d="M569.412 260.171C564.193 256.875 559.043 254.266 553.962 252.343C548.88 250.421 544.074 249.047 539.542 248.223C535.01 247.399 530.89 246.987 527.182 246.987C520.04 246.987 514.341 248.361 510.084 251.107C505.826 253.854 503.698 257.837 503.698 263.055C503.698 267.725 505.071 271.57 507.818 274.591C510.702 277.475 514.41 279.879 518.942 281.801C523.611 283.587 528.692 285.303 534.186 286.951C539.816 288.599 545.378 290.453 550.872 292.513C556.365 294.436 561.447 296.977 566.116 300.135C570.785 303.294 574.493 307.345 577.24 312.289C579.987 317.096 581.36 323.207 581.36 330.623C581.36 339.138 579.025 346.554 574.356 352.871C569.686 359.051 563.232 363.858 554.992 367.291C546.889 370.725 537.55 372.441 526.976 372.441C519.422 372.441 512.075 371.48 504.934 369.557C497.793 367.497 491.063 364.751 484.746 361.317C478.566 357.884 473.004 353.901 468.06 349.369L478.566 329.387C483.51 333.919 488.728 337.765 494.222 340.923C499.852 344.082 505.483 346.485 511.114 348.133C516.882 349.781 522.306 350.605 527.388 350.605C535.902 350.605 542.494 348.957 547.164 345.661C551.97 342.365 554.374 337.765 554.374 331.859C554.374 327.053 552.932 323.207 550.048 320.323C547.301 317.302 543.593 314.83 538.924 312.907C534.392 310.985 529.311 309.268 523.68 307.757C518.187 306.247 512.625 304.53 506.994 302.607C501.501 300.547 496.419 298.007 491.75 294.985C487.218 291.964 483.51 288.05 480.626 283.243C477.879 278.437 476.506 272.325 476.506 264.909C476.506 256.807 478.703 249.803 483.098 243.897C487.493 237.855 493.604 233.185 501.432 229.889C509.397 226.593 518.598 224.945 529.036 224.945C538.374 224.945 547.439 226.319 556.228 229.065C565.017 231.812 572.776 235.383 579.506 239.777L569.412 260.171Z" fill="#0F172B"></path><path d="M421.861 264.291C416.643 258.523 410.463 253.991 403.321 250.695C396.18 247.399 388.97 245.751 381.691 245.751C374.55 245.751 367.821 247.125 361.503 249.871C355.323 252.481 349.83 256.189 345.023 260.995C340.354 265.802 336.715 271.433 334.105 277.887C331.496 284.205 330.191 291.071 330.191 298.487C330.191 305.766 331.496 312.633 334.105 319.087C336.715 325.405 340.354 330.967 345.023 335.773C349.83 340.58 355.323 344.357 361.503 347.103C367.821 349.85 374.55 351.223 381.691 351.223C388.97 351.223 396.111 349.713 403.115 346.691C410.119 343.533 416.368 339.275 421.861 333.919L436.281 348.957C431.475 353.764 425.981 357.953 419.801 361.523C413.759 365.094 407.373 367.841 400.643 369.763C394.051 371.686 387.322 372.647 380.455 372.647C369.881 372.647 360.061 370.793 350.997 367.085C341.933 363.24 333.968 357.953 327.101 351.223C320.372 344.494 315.085 336.666 311.239 327.739C307.394 318.675 305.471 308.993 305.471 298.693C305.471 288.393 307.394 278.849 311.239 270.059C315.085 261.133 320.441 253.305 327.307 246.575C334.311 239.846 342.345 234.627 351.409 230.919C360.611 227.211 370.567 225.357 381.279 225.357C388.146 225.357 394.875 226.25 401.467 228.035C408.059 229.821 414.308 232.361 420.213 235.657C426.119 238.953 431.406 242.936 436.075 247.605L421.861 264.291Z" fill="#0F172B"></path><path d="M206.456 226.801C224.996 226.801 239.279 231.127 249.304 239.779C259.467 248.293 264.548 260.31 264.548 275.829C264.548 292.034 259.467 304.669 249.304 313.733C239.279 322.659 224.996 327.123 206.456 327.123H172.26V371.001H147.952V226.801H206.456ZM206.456 306.317C217.58 306.317 226.163 303.913 232.206 299.107C238.386 294.163 241.476 286.609 241.476 276.447C241.476 266.696 238.386 259.486 232.206 254.817C226.163 250.01 217.58 247.607 206.456 247.607H172.26V306.317H206.456ZM207.28 317.647H231.176L267.02 371.001H239.416L207.28 317.647Z" fill="#0F172B"></path></svg>