<svg width="498" height="498" viewBox="0 0 498 498" fill="none" xmlns="http://www.w3.org/2000/svg">
<circle cx="249" cy="249" r="249" fill="white"/>
<path d="M257.4 86.0059C257.4 86.0091 257.403 86.0118 257.406 86.0118C330.03 86.9902 388.601 146.167 388.601 219.022C388.6 273.895 355.374 321.006 307.944 341.338C299.913 344.78 297.975 356.433 305.234 361.295L356.583 395.692C364.794 401.192 360.901 414 351.018 414H309.082C307.075 414 305.114 413.396 303.454 412.266L203.784 344.409C197.145 339.889 188.156 344.644 188.156 352.675V404C188.156 409.523 183.679 414 178.156 414H144.4C138.878 414 134.4 409.523 134.4 404V96C134.4 90.4771 138.878 86 144.4 86H257.394C257.398 86 257.4 86.0026 257.4 86.0059ZM188.156 159.699C188.156 162.026 187.327 164.268 185.918 166.12C174.745 180.81 168.111 199.142 168.111 219.022C168.111 239.737 175.314 258.768 187.349 273.752C203.379 293.711 227.986 306.488 255.578 306.488C303.884 306.488 343.045 267.329 343.045 219.022C343.045 171.328 304.871 132.551 257.41 131.575C257.405 131.575 257.4 131.571 257.4 131.566C257.4 131.56 257.396 131.556 257.391 131.556H198.156C192.633 131.556 188.156 136.033 188.156 141.556V159.699ZM255.578 169.822C282.75 169.822 304.777 191.85 304.777 219.022C304.777 246.195 282.75 268.222 255.578 268.223C228.406 268.223 206.378 246.195 206.378 219.022C206.378 191.85 228.406 169.822 255.578 169.822Z" fill="url(#paint0_linear_42_311)"/>
<defs>
<linearGradient id="paint0_linear_42_311" x1="152.623" y1="414" x2="369.011" y2="141.122" gradientUnits="userSpaceOnUse">
<stop stop-color="#2563EB"/>
<stop offset="1" stop-color="#0BE1FD"/>
</linearGradient>
</defs>
</svg>
